<?xml version="1.0" encoding="utf-8"?>
<!-- Generator: Adobe Illustrator 27.1.0, SVG Export Plug-In . SVG Version: 6.00 Build 0)  -->
<svg version="1.1" id="레이어_1" xmlns="http://www.w3.org/2000/svg" xmlns:xlink="http://www.w3.org/1999/xlink" x="0px"
	 y="0px" viewBox="0 0 400 450" style="enable-background:new 0 0 400 450;" xml:space="preserve">
<style type="text/css">
	.st0{fill:#FFFFFF;}
</style>
<g>
	<path class="st0" d="M365,12.5H35c-11.05,0-20,8.95-20,20v385c0,11.05,8.95,20,20,20h330c11.05,0,20-8.95,20-20v-385
		C385,21.45,376.05,12.5,365,12.5z M239,33.97c0,3.11-2.52,5.63-5.63,5.63h-65.73c-3.11,0-5.63-2.52-5.63-5.63v0
		c0-3.11,2.52-5.63,5.63-5.63H194v-0.38c0-3.59,2.91-6.5,6.5-6.5s6.5,2.91,6.5,6.5v0.38h26.37C236.48,28.34,239,30.86,239,33.97
		L239,33.97z"/>
</g>
</svg>
