<svg enable-background="new 0 0 1215 326.9" height="326.9" width="1215" xmlns="http://www.w3.org/2000/svg"><path clip-rule="evenodd" d="m1208.7 154.8c-4.2-13.4-10.5-25.1-18.8-35.1s-18.6-18-30.9-23.8-26.4-8.8-42.5-8.8c-15.8 0-30 2.9-42.7 8.6s-23.5 13.6-32.3 23.6c-8.9 10-15.6 21.9-20.3 35.7-4.6 13.8-7 28.8-7 44.9 0 19.2 2.4 36.6 7.2 52 4.8 15.5 11.6 28.6 20.5 39.5s19.6 19.2 32.1 25.1c12.5 5.8 26.4 8.8 41.6 8.8 16.3 0 30.8-3.6 43.3-10.9 12.5-7.2 22.9-16.8 31.1-28.8s14.4-25.6 18.6-40.9 6.3-31 6.3-47.2c.1-15.1-2-29.3-6.2-42.7zm-71.8 98c-3.2 7.4-7.5 11.1-12.9 11.1-4.8 0-8.9-3.6-12.3-10.9-3.4-7.2-5.1-16.3-5.1-27.2 0-9.7 1.3-16.5 3.8-20.3s7.5-5.6 14.8-5.6c5.6 0 9.8 1.9 12.5 5.6 2.7 3.8 4 10.5 4 20.3 0 10.6-1.6 19.6-4.8 27z" fill-rule="evenodd"/><path d="m980.7 159.3c-5.9-13.6-14.3-25.2-25.1-34.8s-24-17.1-39.5-22.4c-4.9-1.7-10-3.1-15.3-4.2 1.5-20.4 2.6-37 3.4-49.6 1.4-22.1 2.3-33.7 2.6-34.8.1-2.5-.3-4.3-1.2-5.5s-2.7-2.1-5.4-2.8c-7.3-1.5-15-2.5-23.2-3.2s-16.6-1.2-25.2-1.6c-13.2-.6-22.8-.5-28.6.3s-8.8 3.8-9.1 8.8c-1.7 36.4-2.8 72-3.3 106.7v.2c-.3 7.1-.6 14.4-.8 21.9-.3 10.7-.4 21.2-.4 31.5 0 24.7.5 48.6 1.4 71.6 1 23.1 2.1 46.1 3.5 69.2.8 2.2 3.1 4.2 6.8 6.1s8 3.5 13 4.9c4.9 1.4 10.1 2.4 15.4 3.1 5.4.7 10.1 1 14.2 1 15.9 0 31.4-2.3 46.5-6.9s28.5-11.9 40.2-21.8 21.1-22.5 28.2-37.9c7.1-15.3 10.7-33.7 10.7-55.2.1-16.1-2.9-31.1-8.8-44.6zm-64.4 96c-1.9 4.1-4.3 7.6-7 10.6s-5.8 5.4-9.3 7.1c-3.4 1.8-6.5 2.8-9.3 3.1-.3-3.5-.4-7.1-.4-10.6v-11c0-14.4.4-28.8 1.2-43.1 18.4 1.9 27.6 12.2 27.6 30.9.1 4.6-.9 8.9-2.8 13zm-387.1-212.5c.7 7.7 1.8 14.7 3.2 21.1 1.5 6.4 3.3 10 5.6 10.9 1 .4 2.5.5 4.4.4s3.5-.2 4.7-.3c10.6-2.1 21.4-3.6 32.4-4.4s21.9-1.5 32.8-2.1c4.5-.5 7.2-1.8 8-3.7 1.4-3.4 2.3-8.5 2.6-15.2.4-6.7.3-13.5-.2-20.5s-1.4-13.3-2.7-18.7c-1.3-5.5-2.9-8.6-4.9-9.4-.7-.3-2.3-.5-4.5-.5-5.7-.2-12.9-.3-21.7-.2s-17.5.5-26.1 1.1-16.2 1.6-22.7 2.9c-6.6 1.3-10.3 3-11.2 5.2-.5 1.2-.7 5.2-.7 11.9s.4 13.9 1 21.5zm135.4 0c.7 7.7 1.8 14.7 3.2 21.1 1.5 6.4 3.3 10 5.6 10.9 1 .4 2.5.5 4.4.4s3.5-.2 4.7-.3c10.6-2.1 21.4-3.6 32.4-4.4s21.9-1.5 32.8-2.1c4.5-.5 7.2-1.8 8-3.7 1.4-3.4 2.3-8.5 2.6-15.2.4-6.7.3-13.5-.2-20.5s-1.4-13.3-2.7-18.7c-1.3-5.5-2.9-8.6-4.9-9.4-.7-.3-2.3-.5-4.5-.5-5.7-.2-12.9-.3-21.7-.2s-17.5.5-26.1 1.1-16.2 1.6-22.7 2.9c-6.6 1.3-10.3 3-11.2 5.2-.5 1.2-.7 5.2-.7 11.9-.1 6.7.3 13.9 1 21.5zm-197.8 48.9c-5.2-1.4-15-2.1-29.4-2.1-3.9 0-8.2.1-12.9.2-4.6.1-9.2.5-13.5 1-4.4.6-8.2 1.5-11.4 2.7-3.2 1.3-5.3 3-6.1 5.2-4.8 12-10.4 23.4-16.7 34.3s-13.2 21.3-20.5 31.3c-7-10-13.9-20.6-20.5-31.7s-12.6-22.7-18-34.7c-.8-1.9-3-3.5-6.6-4.6-3.5-1.1-7.4-1.9-11.6-2.3s-8.2-.6-12-.6h-7.8c-2.5 0-5.4.1-8.5.2s-5.9.6-8.5 1.3c-2.5.7-4.7 1.6-6.6 2.7-1.8 1.1-2.7 2.6-2.7 4.6-1.1 14.2-1.8 28.3-2.1 42.4s-.4 28.6-.4 43.7c0 20.9.3 42.1.8 63.5.6 21.4 1.3 42.2 2.1 62.2 0 3.1.8 5.5 2.5 7.3s4.9 2.7 9.7 2.7c10.7 0 18.5-.2 23.5-.6 4.9-.4 8.5-.9 10.8-1.5s3.9-2.4 4.9-5.4c1-3.1 1.5-8.6 1.5-16.7v-15.5c0-3.9-.1-7.8-.4-11.7 3.9 8.9 8.1 17 12.5 24.2s8.9 14.5 13.7 21.7c2 2.8 3.7 4.5 5.3 5 1.5.6 4.7.8 9.5.8 5.9 0 9.7-.4 11.4-1.3 1.7-.8 3.1-2.4 4.2-4.6 3.1-5.8 6.3-12.2 9.7-19s6.6-13.7 9.7-20.7v6.3c0 3.1-.1 6.3-.2 9.6s-.2 6.4-.2 9.2v5.4c0 3.9.8 6.8 2.5 8.8s5.1 3.4 10.4 4.4c5.2 1 12.7 1.5 22.4 1.7 9.7.1 22.6.2 38.7.2 5.6 0 9.9-.5 12.7-1.5s4.4-4.2 4.6-9.8c1.1-21.7 1.8-43.7 2.1-66s.4-44.4.4-66.4c0-26.5-.4-52.6-1.3-78.5.1-3.5-2.5-6-7.7-7.4zm-266.3 115.1c-.5-10.1-.8-21.1-.8-33 0-10.4.1-21.2.4-32.6s1.2-23.6 2.8-36.5c0-3.1-6.2-5.8-18.5-8.2-12.3-2.3-26.1-3.5-41.3-3.5-5.8 0-8.7 4.7-8.7 14-5.8-4.1-12.2-7.1-19.3-8.9s-15.9-2.7-26.3-2.7c-28.3 0-50.2 9.7-65.7 29.1-15.4 19.4-23.1 46.9-23.1 82.7 0 21.2 3.1 39.5 9.4 54.8s14 27.7 23.2 37.3 19.1 16.6 29.9 21c10.7 4.4 20.6 6.6 29.5 6.6 27.3 0 48-8.5 62.1-25.6.8 19.2 6.4 19.9 17.8 20.7 11 .8 21 1.6 38.3-1.6 7.5-1.4.3-27.4-2.9-45.3-3.3-19.1-6.3-58.2-6.8-68.3zm-73.1 35c-4.7 10.1-11.3 15.2-19.7 15.2s-16-5.1-22.8-15.2-10.2-22.4-10.2-36.9c0-8.8 2.5-16.4 7.5-22.9s13.5-9.7 25.6-9.7c9.4 0 16.2 2.9 20.4 8.6s6.3 13.5 6.3 23.3c0 14.9-2.4 27.5-7.1 37.6zm632-146.3c-8.5-1.1-17.4-1.8-26.8-2.1s-19.1-.4-29-.4c-15.2 0-26.1.6-32.8 1.7-6.6 1.1-9.9 4.2-9.9 9.2 0 36.5.7 72.1 2.1 106.7 1.4 34.7 3.2 67.6 5.5 98.8.6 4.7 1.6 8 3.2 9.8 1.5 1.8 3.9 2.9 7 3.1 6.5.6 14.1 1 22.8 1.5 8.7.4 17.2.6 25.4.6 2.8 0 6.2.1 10.1.4s7.8.3 11.6 0 7-1.2 9.7-2.7 4-4 4-7.3c0-7.2.1-17.5.2-30.7s.5-27.9 1.1-44.1c1.4-45.7 2.3-79.6 2.7-101.7s.8-33.8 1.1-34.9c0-2.5-.6-4.3-1.7-5.4s-3.2-2-6.3-2.5zm-138.6 0c-8.5-1.1-17.4-1.8-26.8-2.1s-19.1-.4-29-.4c-15.2 0-26.1.6-32.8 1.7-6.6 1.1-9.9 4.2-9.9 9.2 0 36.5.7 72.1 2.1 106.7 1.4 34.7 3.2 67.6 5.5 98.8.6 4.7 1.6 8 3.2 9.8 1.5 1.8 3.9 2.9 7 3.1 6.5.6 14.1 1 22.8 1.5 8.7.4 17.2.6 25.4.6 2.8 0 6.2.1 10.1.4s7.8.3 11.6 0 7-1.2 9.7-2.7 4-4 4-7.3c0-7.2.1-17.5.2-30.7s.5-27.9 1.1-44.1c1.4-45.7 2.3-79.6 2.7-101.7s.8-33.8 1.1-34.9c0-2.5-.6-4.3-1.7-5.4s-3.2-2-6.3-2.5z"/></svg>