<?xml version="1.0" encoding="utf-8"?>
<!-- Generator: Adobe Illustrator 27.1.0, SVG Export Plug-In . SVG Version: 6.00 Build 0)  -->
<svg version="1.1" id="레이어_1" xmlns="http://www.w3.org/2000/svg" xmlns:xlink="http://www.w3.org/1999/xlink" x="0px"
	 y="0px" viewBox="0 0 700 700" style="enable-background:new 0 0 700 700;" xml:space="preserve">
<style type="text/css">
	.st0{fill:#623EFF;}
</style>
<path class="st02" d="M673.09,457.07C673.09,457.07,673.09,457.07,673.09,457.07c-2.56-3.23,0.49-5.85,1.08-8.74
	c0-1.89,0.9-3.89-0.86-5.54c0.02-1.08,0.04-2.17,0.05-3.25c0.9-4.53,3.05-9.17-1.19-13.29c-1.07-6.3,1.48-12.39,1.19-18.65
	c0.9-4.18,2.88-8.45-1.19-12.19c0.25-5.49-1.53-11.11,1.19-16.44c0,0,0,0,0,0c1.74-1.64,0.74-3.66,0.83-5.52c0,0,0,0,0,0
	c-0.28-2.98,1.33-6.16-1.08-8.91c0,0,0,0,0,0c-1.31-1.42-1.03-2.89-0.11-4.36c0-1.81,0-3.62-0.01-5.43
	c0.01-1.84,0.02-3.68,0.03-5.52c0,0,0,0,0,0c-0.01-1.87-0.02-3.74-0.02-5.61c0,0,0,0,0,0c0.11-0.34,0.24-0.68,0.37-1.02
	c0.95-3.12,2.89-6.36-1.18-8.88c0-4.01,0.01-8.01,0.01-12.02c0,0,0,0,0,0c1.92-2.02,0.65-4.4,0.82-6.61c0,0,0,0,0,0
	c0-2.61,0-5.22,0-7.83c0,0,0,0,0,0v0c-0.34-5.46-1.79-10.87-0.81-16.39c0,0,0,0,0,0c1.92-2.02,0.65-4.4,0.83-6.62c0,0,0,0,0,0
	c-0.32-4.08,1.34-8.31-1.1-12.22c0,0,0,0,0,0c0.09-5.11,0.17-10.22,0.26-15.33c2.02-3.6,0.65-7.46,0.91-11.19
	c0.11-1.63,0.87-3.86-2.09-4.29c-0.22-2.27-0.69-4.58,1.18-6.51c1.89-1.63,0.68-3.66,0.81-5.52c0,0,0,0,0,0c0-2.2,0-4.41,0-6.61
	c0,0,0,0,0,0c0.06-1.96,0.41-3.96,0.1-5.87c-0.35-2.16,1.79-5.18-2.08-6.33c0.21-3.71-1.33-7.55,0.94-11.11c0,0,0,0,0,0
	c2.43-1.84,0.78-4.27,1.05-6.42c0,0,0,0,0,0c0.06-1.96,0.41-3.96,0.09-5.86c-0.36-2.17,1.78-5.18-2.08-6.34
	c-0.07-3.31-0.89-6.68,0.85-9.85c-0.02-2.22-0.05-4.44-0.07-6.66c0,0,0,0,0,0c0,0,0,0,0,0c0.14-1.45,0.28-2.9,0.42-4.35
	c0.9-3.82,3.01-7.75-1.19-11.09c-0.64-1.61,0.3-2.96,0.82-4.38c-0.01-1.88,0.94-3.9-0.88-5.52c0.02-1.07,0.05-2.15,0.07-3.22
	c1.96-2.45,0.63-5.2,0.79-7.81c0,0,0,0,0,0c0,0,0,0,0,0c0.12-0.34,0.24-0.69,0.37-1.03c0,0,0,0,0,0c1.54-2.58,1.53-5.16,0-7.74
	c0,0,0,0,0,0c-2.09-2.48-1.63-5.07-0.35-7.69c0-1.88,0.92-3.89-0.87-5.53c0.02-1.08,0.04-2.16,0.06-3.24c0,0,0,0,0,0c0,0,0,0,0,0
	c2.03-3.6,0.56-7.43,0.81-11.15c0,0,0,0,0,0c0,0,0,0,0,0c-1.11-4.04-0.76-8.19-1.11-12.29c-0.49-5.76-4.61-10.49-9.27-10.67
	c-3.81-0.15-8.07,1.17-7.42-4.94c0.11-1.01-2.02-0.44-3.04-0.83c-1.88-3.53-4.39-2.33-6.95-0.82c0,0,0,0,0,0
	c-2.88,2.56-5.86-0.03-8.48-0.37c-9.05-1.15-17.63,4.44-26.65,1.22c-1.74-1.85-3.92-0.71-5.92-0.76c0,0,0,0,0,0c0,0,0,0,0,0
	c-0.36-0.13-0.72-0.26-1.09-0.39c-1.73-1.76-3.91-0.61-5.88-0.81c-1.95-0.01-3.9-0.02-5.86-0.03c0,0,0,0,0,0
	c-3.87,0.9-8.52-2.31-11.76,1.95c-6.67,0.74-13.23-0.21-19.79-1.12c-4.43-0.83-8.97-2.72-12.94,1.12
	c-6.99-0.32-14.12,1.56-20.97-1.12c-3.14-1.26-6.24-1.68-9.26,0.3c0,0,0,0,0,0c-5.7,1.54-11.26,3.15-17.39,3.45
	c-5.57,0.27-10.08-2.94-15.4-2.57c-2.39-1.62-4.78-1.54-7.16,0.02c0,0,0,0,0,0c-4.64-0.03-9.28-0.06-13.92-0.1
	c-4.3-1.51-8.61-1.45-12.91,0.02c-4.65-0.01-9.31-0.01-13.96-0.02c0,0,0,0,0,0c-2.15-1.78-4.67-0.6-7.02-0.76c0,0,0,0,0,0
	c-3.88,0.29-7.96-1.4-11.61,1.06c0,0,0,0,0,0c-5.13,1.79-10.17-1.11-15.28-0.28c-1.74-1.69-3.87-0.67-5.85-0.76c0,0,0,0,0,0
	c-2.08-0.05-4.2-0.38-6.22-0.08c-2.3,0.33-5.49-1.68-6.72,1.96c-4.76,0.83-9.31-0.54-13.94-1.12h0c-1.74-1.69-3.88-0.67-5.86-0.77
	c0,0,0,0,0,0c-2.84-0.05-5.7-0.28-8.52-0.08c-1.97,0.14-4.8-1.34-5.59,1.96c-5.05-0.25-10.26,1.42-15.11-1.12
	c-1.75-1.67-3.88-0.7-5.86-0.75c0,0,0,0,0,0c-3.9,0.77-8.5-2.44-11.77,1.86c-7.79,0.07-15.63,0.99-23.31-1.12
	c-2.98-1.12-5.98-2.38-8.26,1.11c-14.68,3.82-29.54,1.48-44.34,1.11c-0.17-1.59-1.25-2.05-2.78-2.04
	c-4.41,0.03-8.82,0.04-13.23,0.01c-1.54-0.01-2.61,0.43-2.78,2.03c-4.5-1.97-9.34-0.32-13.95-1.11c-1.74-1.68-3.87-0.68-5.85-0.76
	c0,0,0,0,0,0c-2.08-0.05-4.2-0.38-6.22-0.09c-2.3,0.33-5.5-1.7-6.72,1.96c-5.84-0.36-11.68-0.72-17.52-1.08
	c-3.5-1.6-7.01-1.47-10.52-0.03c0,0,0,0,0,0c-6.62,1.44-13.16,1.11-19.94,0.4c-6.41-0.68-13.21,0.68-19.58,0.51
	c-17.38-0.46-34.72,0.64-52.07,0.34c-0.38-0.01-0.76-0.12-1.14-0.16C56.6,63.59,46.1,63.7,36.98,69.58
	c-6.28,4.05-10.95,9.14-10.51,17.49c0.64,12.31,0.09,24.67,0.21,37c0.03,3.15,2.03,7.01,0.71,9.3c-2.55,4.42-1.21,8.8-1.25,12.97
	c-0.07,8.11,2.94,16.21,0.3,24.4c-1.53,2.95-1.51,5.9,0.01,8.85c0,0,0,0,0,0c0.13,1.11,0.26,2.21,0.4,3.32
	c-0.03,2.27-1.06,4.64,0.85,6.69c0,0,0,0,0,0c-1.33,5.25,1.02,10.59-0.18,15.77c-1.85,7.97-0.3,15.83,0.1,23.73
	c-1.61,4.06-1.55,8.12,0.02,12.17c0,0,0,0,0,0c-1.93,5.04-0.72,10.23-0.83,15.36c0,0,0,0,0,0c0.01,2.21,0.02,4.41,0.03,6.62
	c0,0,0,0,0,0c0.12,2.97-1.14,6.04,0.8,8.86v0c1.27,3.76-1.54,7.24-0.82,10.96c0,0,0,0,0,0c0,2.2,0.01,4.39,0.01,6.59c0,0,0,0,0,0
	c0.1,4.43-1.14,8.94,0.81,13.27c0,4.02-0.01,8.03-0.01,12.05c-1.52,1.87-1.42,3.72,0.03,5.58c-0.58,1.38-1.4,2.72-0.89,4.3
	c0.19,2.61-1.02,5.36,0.86,7.81c0,0,0,0,0,0c0.11,4.02,0.23,8.05,0.34,12.07c0.01,1.86,0.02,3.72,0.03,5.58c0,0,0,0,0,0v0
	c-0.12,0.34-0.25,0.68-0.39,1.02c-1.62,4.07-1.54,8.13,0.02,12.19c0,0,0,0,0,0c0.11,2.56,0.23,5.12,0.34,7.68
	c0.02,2.21,0.03,4.42,0.05,6.63c0,0,0,0,0,0c0,0,0,0,0,0c-0.02,1.08-0.05,2.15-0.07,3.23c0.01,1.87,0.02,3.74,0.03,5.61c0,0,0,0,0,0
	c0,0,0,0,0,0c-0.12,0.34-0.24,0.69-0.36,1.03c-1.54,2.58-1.54,5.17,0,7.75c0,0,0,0,0,0c0.12,2.2,0.23,4.4,0.35,6.59
	c0.02,2.21,0.04,4.42,0.05,6.62c0,0,0,0,0,0c-0.03,1.07-0.06,2.15-0.08,3.22c0.01,3.71,0.02,7.42,0.03,11.13c0,0,0,0,0,0
	c0,0,0,0,0,0c-0.01,6.94-0.02,13.87-0.04,20.81c0.23,4.07-1.18,8.24,0.86,12.19c0,0,0,0,0,0c-0.81,4.36-1.35,8.73-0.84,13.16
	c0,0,0,0,0,0c0,1.83,0,3.67,0,5.5c0,0,0,0,0,0c0.15,4.43-1.11,8.94,0.84,13.27c0,0,0,0,0,0c1.2,4.11-1.27,8-0.84,12.06c0,0,0,0,0,0
	c0,1.83,0,3.67,0,5.5c0,0,0,0,0,0c0.2,4.06-1.18,8.22,0.83,12.18c0.11,2.57,0.23,5.13,0.34,7.7c-0.07,1.79-0.13,3.59-0.2,5.38
	c0,0,0,0,0,0c0,0,0,0,0,0c-1.96,1.16-0.87,2.93-1.02,4.46c0.22,4.44-1.08,8.97,0.88,13.31c0,0,0,0,0,0
	c-0.01,6.23-0.01,12.45-0.02,18.68c-1.56,2.95-1.47,5.91,0.02,8.85v0c4.46,15.25,13.87,24.96,31.77,25.13c0,0,0,0,0,0c0,0,0,0,0,0
	c1.53,0.12,3.06,0.24,4.59,0.36c0,0,0,0,0,0c0,0,0,0,0,0c3.42,1.85,7.11,0.61,10.67,0.84c0,0,0,0,0,0c1.11,0.33,2.23,0.67,3.34,1
	c3.14,0.01,6.28,0.01,9.42,0.02c0,0,0,0,0,0c0,0,0,0,0,0c1.85,1.99,4.9,0.65,6.89,2.23c3.54,0.02,7.08,0.03,10.63,0.05c0,0,0,0,0,0
	c0,0,0,0,0,0c1.95,0.01,3.9,0.02,5.85,0.03c0,0,0,0,0,0c3.13-0.3,6.42,0.98,9.39-0.85c0,0,0,0,0,0c2.7,0,5.41,0,8.11,0h0
	c1.74,1.76,3.88,0.65,5.86,0.74c0,0,0,0,0,0c2.34,0.01,4.69,0.02,7.03,0.02c0,0,0,0,0,0c4.31-0.18,8.72,1.16,12.91-0.77
	c4.26,0,8.53,0.01,12.79,0.01c2.16,1.8,4.67,0.62,7.03,0.75c0,0,0,0,0,0c4.31-0.15,8.72,1.15,12.92-0.76c0,0,0,0,0,0
	c1.94-0.11,3.89-0.22,5.83-0.33c2.35-0.01,4.69-0.03,7.04-0.04c0,0,0,0,0,0c0,0,0,0,0,0c2.69,0.4,5.38,0.8,8.07,1.2
	c3.55-0.17,7.21,0.98,10.62-0.82c4.08-0.81,8.32,0.69,12.42-1.08c4.07-1.76,8.26-0.94,12.24,0.8c2.21,2.03,4.54,1.55,6.91,0.29h0
	c0.78-0.11,1.57-0.22,2.35-0.34c2.32,0,4.63,0,6.95,0c1.95,0.01,3.9,0.01,5.85,0.02c0,0,0,0,0,0c2.34-0.01,4.68-0.01,7.02-0.02
	c0,0,0,0,0,0c2.76,0,5.52,0.01,8.28,0.01c0,0,0,0,0,0c0,0,0,0,0,0c5.81,0,11.62,0.01,17.43,0.01c0,0,0,0,0,0
	c2.73-0.01,5.47-0.02,8.2-0.03c0,0,0,0,0,0c3.54-0.1,7.17,1.08,10.57-0.76h0c4.59,1.19,9.26,1.05,13.95,0.8c0,0,0,0,0,0c0,0,0,0,0,0
	c2.73-0.01,5.47-0.02,8.2-0.02c0,0,0,0,0,0c3.15-0.13,6.41,1.03,9.41-0.77h0c3.09,0,6.19,0,9.28,0c1.73,1.76,3.88,0.64,5.85,0.75
	c0,0,0,0,0,0c2.34,0.01,4.68,0.01,7.02,0.02c0,0,0,0,0,0c3.93-0.13,7.95,1.04,11.75-0.78c4.65,0.01,9.31,0.01,13.96,0.02
	c0,0,0,0,0,0c1.74,1.69,3.89,0.67,5.87,0.79c0,0,0,0,0,0c4.31-0.23,8.72,1.11,12.91-0.81c0,0,0,0,0,0
	c6.6,0.01,13.21,0.01,19.81,0.02c3.93,1.44,7.85,1.38,11.78-0.03c0,0,0,0,0,0c4.2,0.81,7.51-2.51,11.6-2.23
	c4.19,2.08,8.61,0.57,12.93,0.75c0,0,0,0,0,0c0,0,0,0,0,0c0.36,0.14,0.72,0.26,1.09,0.38c3.37,1.99,7.03,0.5,10.54,0.78
	c3.51,0.01,7.02,0.03,10.54,0.04c0,0,0,0,0,0c5.9,0,11.79-0.01,17.69-0.01c0,0,0,0,0,0c0,0,0,0,0,0c8.68,0.41,17.26,0.21,25.62-2.56
	c2.05-0.68,4.55-2.82,6.36-1.34c3.91,3.21,8.03,2.1,12.24,1.68c3.55-0.2,7.22,1.05,10.63-0.8c0,0,0,0,0,0
	c6.2-0.53,12.18-3.52,18.6-1.41c3.56-0.01,7.13-0.03,10.69-0.04c2.35-0.13,4.85,1.08,7-0.75h0c2.71-0.56,5.76,0.6,8.17-1.46
	c3.09,0,6.18,0,9.27,0c0,0,0,0,0,0c0,0,0,0,0,0c2.75,1.98,5.83,1.22,8.89,1.03c5.06-0.32,8.19-4.71,12.46-5.67
	c7.6-1.71,9.82-10.64,18.07-10.86c0.4-0.01,0.91-0.7,1.15-1.18c3.8-7.5,7.87-14.87,11.06-22.67c2.26-5.52-0.22-11.28,2.04-16.63
	c-0.01-1.82-0.02-3.64-0.03-5.47c0,0,0,0,0,0c0.01-1.84,0.01-3.68,0.02-5.52c0.01-1.87,0.01-3.75,0.02-5.62c0,0,0,0,0,0
	c-0.73-7.66-1.56-15.31-0.81-23.01c0,0,0,0,0,0c0,0,0,0,0,0c1.58-4.42,1.49-8.85-0.02-13.27c-0.63-1.62,0.28-2.99,0.82-4.42
	c-0.01-1.88,0.94-3.9-0.88-5.52c0.03-2.55,0.05-5.09,0.08-7.64c0,0,0,0,0,0c0,0,0,0,0,0C674.85,465.92,675.12,461.48,673.09,457.07z
	 M382,95.48h-64c-3.31,0-6-2.53-6-5.65s2.69-5.65,6-5.65h26V83.7c0-3.38,2.91-6.12,6.5-6.12s6.5,2.74,6.5,6.12v0.47h25
	c3.31,0,6,2.53,6,5.65S385.31,95.48,382,95.48z"/>
</svg>
